<svg width="127" height="36" viewBox="0 0 127 36" fill="none" xmlns="http://www.w3.org/2000/svg">
<g clip-path="url(#clip0_417_1464)">
<path fill-rule="evenodd" clip-rule="evenodd" d="M5.4814 6.10982L25.795 0.0458215C26.3891 -0.131505 27.0179 0.224631 27.1885 0.824384L30.493 12.4453C30.6635 13.045 30.32 13.6943 29.7201 13.849L27.4468 14.4359C30.6744 16.2666 31.7045 18.9916 31.9241 20.6919C32.5533 25.5668 29.1808 29.5604 25.4678 30.1482L6.46022 35.9105C5.31697 36.257 4.10835 35.5652 3.77449 34.4098L0.906058 24.484C0.572279 23.3286 1.25231 22.1264 2.39573 21.7783L4.1958 21.2303C1.18979 19.5674 -0.147404 16.5008 0.0131218 13.539C0.19183 10.2378 2.21884 7.08393 5.48148 6.1099L5.4814 6.10982ZM12.4577 17.5717C12.4875 17.3515 12.533 17.1324 12.5812 16.9217L14.7275 7.52991L22.5796 6.52038L19.706 14.0655L20.2146 14.0178C21.553 13.8923 22.3459 14.9758 21.7725 16.2197L13.6891 31.4946L15.2316 19.6888C14.9445 19.8714 14.6048 19.9771 14.2403 19.9771C13.2136 19.9771 12.3813 19.1387 12.3813 18.1044C12.3813 17.9193 12.4082 17.7405 12.4578 17.5717H12.4577Z" fill="#F4F4F4"/>
</g>
<path d="M50.1 25.24C49.0867 25.24 48.1867 25.06 47.4 24.7C46.6267 24.34 46.0133 23.8267 45.56 23.16C45.12 22.4933 44.8933 21.7 44.88 20.78H47.42C47.4333 21.2467 47.5467 21.6667 47.76 22.04C47.9733 22.4 48.2733 22.6867 48.66 22.9C49.06 23.1133 49.54 23.22 50.1 23.22C50.58 23.22 50.9933 23.1467 51.34 23C51.7 22.84 51.9733 22.62 52.16 22.34C52.36 22.0467 52.46 21.7067 52.46 21.32C52.46 20.88 52.3533 20.5133 52.14 20.22C51.9267 19.9267 51.64 19.6867 51.28 19.5C50.92 19.3 50.5067 19.1267 50.04 18.98C49.5733 18.82 49.08 18.6533 48.56 18.48C47.4667 18.1067 46.64 17.6333 46.08 17.06C45.52 16.4733 45.24 15.6933 45.24 14.72C45.24 13.9067 45.4333 13.2067 45.82 12.62C46.2067 12.0333 46.7533 11.58 47.46 11.26C48.1667 10.9267 48.9733 10.76 49.88 10.76C50.8133 10.76 51.6267 10.9267 52.32 11.26C53.0267 11.5933 53.58 12.06 53.98 12.66C54.3933 13.2467 54.6067 13.9533 54.62 14.78H52.06C52.0467 14.4333 51.9533 14.1133 51.78 13.82C51.6067 13.5133 51.3533 13.2667 51.02 13.08C50.7 12.88 50.3067 12.78 49.84 12.78C49.4533 12.7667 49.1 12.8333 48.78 12.98C48.46 13.1133 48.2067 13.3133 48.02 13.58C47.8467 13.8333 47.76 14.1533 47.76 14.54C47.76 14.9133 47.8467 15.2267 48.02 15.48C48.1933 15.72 48.4333 15.9267 48.74 16.1C49.06 16.26 49.4333 16.4133 49.86 16.56C50.2867 16.7067 50.7533 16.8667 51.26 17.04C51.9533 17.2667 52.58 17.5467 53.14 17.88C53.7133 18.2 54.1667 18.62 54.5 19.14C54.8333 19.66 55 20.3333 55 21.16C55 21.88 54.8133 22.5533 54.44 23.18C54.0667 23.7933 53.52 24.2933 52.8 24.68C52.08 25.0533 51.18 25.24 50.1 25.24ZM60.7145 25.24C59.7679 25.24 58.9079 25.02 58.1345 24.58C57.3745 24.14 56.7745 23.5267 56.3345 22.74C55.8945 21.9533 55.6745 21.0467 55.6745 20.02C55.6745 18.98 55.8945 18.0667 56.3345 17.28C56.7879 16.4933 57.3945 15.88 58.1545 15.44C58.9279 15 59.7879 14.78 60.7345 14.78C61.6945 14.78 62.5545 15 63.3145 15.44C64.0879 15.88 64.6945 16.4933 65.1345 17.28C65.5745 18.0533 65.7945 18.9667 65.7945 20.02C65.7945 21.0467 65.5679 21.9533 65.1145 22.74C64.6745 23.5267 64.0679 24.14 63.2945 24.58C62.5345 25.02 61.6745 25.24 60.7145 25.24ZM60.7145 23.18C61.1945 23.18 61.6279 23.06 62.0145 22.82C62.4145 22.58 62.7345 22.2267 62.9745 21.76C63.2279 21.2933 63.3545 20.7067 63.3545 20C63.3545 19.3067 63.2345 18.7267 62.9945 18.26C62.7545 17.7933 62.4345 17.44 62.0345 17.2C61.6479 16.96 61.2145 16.84 60.7345 16.84C60.2812 16.84 59.8545 16.96 59.4545 17.2C59.0545 17.44 58.7345 17.7933 58.4945 18.26C58.2545 18.7267 58.1345 19.3133 58.1345 20.02C58.1345 20.7 58.2545 21.28 58.4945 21.76C58.7345 22.2267 59.0479 22.58 59.4345 22.82C59.8345 23.06 60.2612 23.18 60.7145 23.18ZM66.8848 25V10.6H69.2848V25H66.8848ZM74.1234 25.24C73.2968 25.24 72.6101 25.1067 72.0634 24.84C71.5168 24.56 71.1101 24.1933 70.8434 23.74C70.5768 23.2733 70.4434 22.76 70.4434 22.2C70.4434 21.5733 70.6034 21.0267 70.9234 20.56C71.2568 20.0933 71.7434 19.7333 72.3834 19.48C73.0234 19.2133 73.8101 19.08 74.7434 19.08H77.2834C77.2834 18.56 77.2034 18.1267 77.0434 17.78C76.8968 17.4333 76.6701 17.1733 76.3634 17C76.0568 16.8267 75.6634 16.74 75.1834 16.74C74.6368 16.74 74.1634 16.8733 73.7634 17.14C73.3768 17.3933 73.1368 17.7667 73.0434 18.26H70.6834C70.7634 17.54 71.0034 16.92 71.4034 16.4C71.8168 15.88 72.3568 15.48 73.0234 15.2C73.6901 14.92 74.4168 14.78 75.2034 14.78C76.1368 14.78 76.9368 14.9467 77.6034 15.28C78.2834 15.6 78.7968 16.06 79.1434 16.66C79.5034 17.26 79.6834 17.9867 79.6834 18.84V25H77.6434L77.4034 23.4C77.2701 23.6533 77.0968 23.8933 76.8834 24.12C76.6834 24.3467 76.4501 24.5467 76.1834 24.72C75.9168 24.88 75.6101 25.0067 75.2634 25.1C74.9301 25.1933 74.5501 25.24 74.1234 25.24ZM74.6634 23.34C75.0501 23.34 75.3968 23.2733 75.7034 23.14C76.0101 22.9933 76.2701 22.7933 76.4834 22.54C76.6968 22.2867 76.8634 22 76.9834 21.68C77.1168 21.36 77.1968 21.02 77.2234 20.66V20.64H75.0034C74.5234 20.64 74.1301 20.7 73.8234 20.82C73.5301 20.94 73.3101 21.1067 73.1634 21.32C73.0301 21.52 72.9634 21.7533 72.9634 22.02C72.9634 22.3 73.0301 22.54 73.1634 22.74C73.2968 22.94 73.4901 23.0933 73.7434 23.2C74.0101 23.2933 74.3168 23.34 74.6634 23.34ZM80.9888 25V15.02H83.1488L83.3688 16.9C83.5954 16.46 83.8821 16.0867 84.2288 15.78C84.5888 15.46 85.0021 15.2133 85.4688 15.04C85.9488 14.8667 86.4821 14.78 87.0688 14.78V17.3H86.3288C85.9154 17.3 85.5288 17.3533 85.1688 17.46C84.8088 17.5533 84.4954 17.7133 84.2288 17.94C83.9621 18.1667 83.7554 18.4733 83.6088 18.86C83.4621 19.2467 83.3888 19.7267 83.3888 20.3V25H80.9888ZM89.6203 25L86.6803 15.02H89.0603L91.1403 23.36H90.6003L92.9603 15.02H95.6203L97.9803 23.36H97.4403L99.5203 15.02H101.9L98.9803 25H96.5003L94.0003 16.36H94.5803L92.1003 25H89.6203ZM102.498 25V15.02H104.898V25H102.498ZM103.698 13.38C103.258 13.38 102.891 13.2467 102.598 12.98C102.318 12.7 102.178 12.36 102.178 11.96C102.178 11.5467 102.318 11.2133 102.598 10.96C102.891 10.6933 103.258 10.56 103.698 10.56C104.138 10.56 104.498 10.6933 104.778 10.96C105.071 11.2133 105.218 11.5467 105.218 11.96C105.218 12.36 105.071 12.7 104.778 12.98C104.498 13.2467 104.138 13.38 103.698 13.38ZM110.472 25.24C109.605 25.24 108.838 25.1 108.172 24.82C107.505 24.5267 106.978 24.1267 106.592 23.62C106.205 23.1 105.972 22.5133 105.892 21.86H108.312C108.378 22.1267 108.498 22.38 108.672 22.62C108.858 22.8467 109.098 23.0267 109.392 23.16C109.698 23.2933 110.052 23.36 110.452 23.36C110.838 23.36 111.158 23.3067 111.412 23.2C111.665 23.08 111.852 22.9333 111.972 22.76C112.092 22.5733 112.152 22.3733 112.152 22.16C112.152 21.84 112.065 21.6 111.892 21.44C111.718 21.28 111.465 21.1533 111.132 21.06C110.812 20.9533 110.425 20.8467 109.972 20.74C109.532 20.6467 109.085 20.5333 108.632 20.4C108.192 20.2667 107.792 20.0933 107.432 19.88C107.085 19.6667 106.798 19.4 106.572 19.08C106.358 18.7467 106.252 18.3467 106.252 17.88C106.252 17.2933 106.405 16.7667 106.712 16.3C107.032 15.82 107.485 15.4467 108.072 15.18C108.672 14.9133 109.378 14.78 110.192 14.78C111.352 14.78 112.278 15.0533 112.972 15.6C113.678 16.1333 114.092 16.88 114.212 17.84H111.932C111.865 17.4667 111.678 17.18 111.372 16.98C111.078 16.7667 110.685 16.66 110.192 16.66C109.672 16.66 109.278 16.76 109.012 16.96C108.745 17.16 108.612 17.4133 108.612 17.72C108.612 17.92 108.698 18.1 108.872 18.26C109.045 18.42 109.292 18.56 109.612 18.68C109.932 18.7867 110.312 18.8867 110.752 18.98C111.472 19.1267 112.112 19.3 112.672 19.5C113.245 19.7 113.705 19.9933 114.052 20.38C114.398 20.7533 114.572 21.3 114.572 22.02C114.585 22.6467 114.418 23.2067 114.072 23.7C113.738 24.18 113.265 24.56 112.652 24.84C112.038 25.1067 111.312 25.24 110.472 25.24ZM120.401 25.24C119.415 25.24 118.535 25.0267 117.761 24.6C117.001 24.16 116.401 23.5533 115.961 22.78C115.535 22.0067 115.321 21.1067 115.321 20.08C115.321 19.0267 115.535 18.1067 115.961 17.32C116.388 16.52 116.981 15.9 117.741 15.46C118.515 15.0067 119.408 14.78 120.421 14.78C121.408 14.78 122.268 15 123.001 15.44C123.735 15.8667 124.301 16.4467 124.701 17.18C125.115 17.9 125.321 18.72 125.321 19.64C125.321 19.7733 125.321 19.92 125.321 20.08C125.321 20.24 125.308 20.4067 125.281 20.58H117.061V19.04H122.901C122.861 18.3333 122.608 17.7733 122.141 17.36C121.688 16.9467 121.115 16.74 120.421 16.74C119.928 16.74 119.468 16.8533 119.041 17.08C118.628 17.2933 118.295 17.62 118.041 18.06C117.801 18.5 117.681 19.0533 117.681 19.72V20.3C117.681 20.9267 117.801 21.46 118.041 21.9C118.281 22.34 118.608 22.68 119.021 22.92C119.435 23.1467 119.895 23.26 120.401 23.26C120.948 23.26 121.401 23.14 121.761 22.9C122.135 22.66 122.415 22.3333 122.601 21.92H125.041C124.855 22.5467 124.548 23.1133 124.121 23.62C123.695 24.1133 123.168 24.5067 122.541 24.8C121.915 25.0933 121.201 25.24 120.401 25.24Z" fill="#F4F4F4"/>
<defs>
<clipPath id="clip0_417_1464">
<rect width="32" height="36" fill="white"/>
</clipPath>
</defs>
</svg>
